# xmcd
#
# Track frame offsets: 
#        151
#        8058
#        22015
#        30631
#        40850
#        49172
#        60076
#        66581
#        75668
#        82652
#        88129
#        98559
#        107413
#        117539
#        125495
#        137343
#        146734
#        154258
#        163331
#        174378
#        181622
#        190821
#        198816
#        206473
#        218499
#        229443
#        238584
#        248989
#        258904
#        267736
#
# Disc length: 3661 seconds
#
# Revision: 0
# Processed by: cddbd v1.5.2PL0 Copyright (c) Steve Scherf et al.
# Submitted via: ExactAudioCopy v0.95b3
#
DISCID=970e4b1e
DTITLE=Various Artist - Bluegrass In The Smokies: 30 Traditional Classics
DYEAR=2007
DGENRE=Bluegrass
TTITLE0=Red Smiley - Little Maggie
TTITLE1=Hylo Brown - Sunny Tennessee
TTITLE2=Reno and Harrell - Molly and Tenbrooks
TTITLE3=Mac Martin - We Can't Be Darlings
TTITLE4=Tater Tate and Red Smiley - Whistlin' Rufus
TTITLE5=Earl Taylor and Jim McCall - Wondering Boy
TTITLE6=Hylo Brown - Handsome Molly
TTITLE7=Mac Martin - Come Back Darling
TTITLE8=Red Smiley - 900 Miles
TTITLE9=Hylo Brown - Darling Nelly Across The Sea
TTITLE10=Earl Taylor and Jim McCall - Lonesome Road Blues
TTITLE11=Mac Martin - Blue Railroad Train
TTITLE12=Log Cabin Boys - Uncle Pen
TTITLE13=Hylo Brown - I Am A Pilgrim
TTITLE14=Vassar Clements - Snowflake Breakdown
TTITLE15=Reno and Harrell - Footprints In The Snow
TTITLE16=Red Smiley - It's Raining Here This Morning
TTITLE17=Jim Greer - East Virginia Blues
TTITLE18=Earl Taylor and Jim McCall - Little Henry Lee
TTITLE19=Mac Martin - Greenfields
TTITLE20=Hylo Brown - Weeping Willow
TTITLE21=Jim Greer - My Home's Across The Blue Ridge Mountains
TTITLE22=Ernie and Mack - Cindy
TTITLE23=Red Smiley - Wreck Of Old No. 9
TTITLE24=Reno and Harrell - Under The Double Eagle
TTITLE25=Earl Taylor and Jim McCall - Two Dollar Bill
TTITLE26=Frosty Mountain Boys - Ain't Gonna Work Here Tomorrow
TTITLE27=Ernie and Mack - Muleskinner Blues
TTITLE28=Hylo Brown - Lost To A Stranger
TTITLE29=Earl Taylor and Jim McCall - John Hardy
EXTD=
EXTT0=
EXTT1=
EXTT2=
EXTT3=
EXTT4=
EXTT5=
EXTT6=
EXTT7=
EXTT8=
EXTT9=
EXTT10=
EXTT11=
EXTT12=
EXTT13=
EXTT14=
EXTT15=
EXTT16=
EXTT17=
EXTT18=
EXTT19=
EXTT20=
EXTT21=
EXTT22=
EXTT23=
EXTT24=
EXTT25=
EXTT26=
EXTT27=
EXTT28=
EXTT29=
PLAYORDER=
